<svg height="112" width="210" xmlns="http://www.w3.org/2000/svg"><g fill="none" fill-rule="evenodd"><path d="m39.138 0h137.31a8 8 0 0 1 8 8v96a8 8 0 0 1 -8 8h-135.709a8 8 0 0 1 -8-8v-97.6a6.4 6.4 0 0 1 6.4-6.4z" fill="#9059ff"/><path d="m39.138 0h138.91a6.4 6.4 0 0 1 6.4 6.4v8h-151.709v-8a6.4 6.4 0 0 1 6.4-6.4z" fill="#2a0140"/><path d="m67.073 0h31.939v14.4h-31.94z" fill="#9059ff"/><g fill="#ffd567" fill-rule="nonzero"><ellipse cx="42.091" cy="7.006" rx="2.657" ry="2.673"/><ellipse cx="50.38" cy="7.006" rx="2.657" ry="2.673"/><ellipse cx="58.668" cy="7.006" rx="2.657" ry="2.673"/></g><g transform="translate(158.897 23.2)"><rect fill="#2a0140" height="88.8" rx="6.4" width="51.103"/><ellipse cx="25.392" cy="77.428" fill="#9059ff" fill-rule="nonzero" rx="3.833" ry="3.828"/><path d="m13.574 9.2h23.956" stroke="#9059ff" stroke-linecap="round" stroke-width="3.2"/></g><g transform="translate(0 65.6)"><rect fill="#ffd567" fill-rule="nonzero" height="24" rx="12" width="122.966"/><path d="m15.57 16.667c-2.425 0-4.391-1.94-4.391-4.334 0-2.393 1.966-4.333 4.391-4.333 2.426 0 4.392 1.94 4.392 4.333 0 2.394-1.966 4.334-4.392 4.334zm15.81 0c-2.425 0-4.391-1.94-4.391-4.334 0-2.393 1.966-4.333 4.391-4.333 2.426 0 4.392 1.94 4.392 4.333 0 2.394-1.966 4.334-4.392 4.334zm14.932 0c-2.426 0-4.392-1.94-4.392-4.334 0-2.393 1.966-4.333 4.392-4.333 2.425 0 4.391 1.94 4.391 4.333 0 2.394-1.966 4.334-4.391 4.334zm15.81 0c-2.426 0-4.392-1.94-4.392-4.334 0-2.393 1.966-4.333 4.392-4.333 2.425 0 4.391 1.94 4.391 4.333 0 2.394-1.966 4.334-4.391 4.334zm14.931 0c-2.425 0-4.391-1.94-4.391-4.334 0-2.393 1.966-4.333 4.391-4.333 2.426 0 4.392 1.94 4.392 4.333 0 2.394-1.966 4.334-4.392 4.334zm15.81 0c-2.425 0-4.392-1.94-4.392-4.334 0-2.393 1.967-4.333 4.392-4.333 2.426 0 4.392 1.94 4.392 4.333 0 2.394-1.966 4.334-4.392 4.334zm14.932 0c-2.426 0-4.392-1.94-4.392-4.334 0-2.393 1.966-4.333 4.392-4.333 2.425 0 4.391 1.94 4.391 4.333 0 2.394-1.966 4.334-4.391 4.334z" fill="#6e008b"/></g></g></svg>