<svg height="121" width="91" xmlns="http://www.w3.org/2000/svg"><g fill="none" transform="translate(0 9)"><path d="m71.243 59.01v-33.047c0-14.339-11.525-25.963-25.743-25.963s-25.743 11.624-25.743 25.962v31.984" stroke="#971db6" stroke-linecap="round" stroke-linejoin="round" stroke-width="16.8"/><rect fill="#ff298a" height="65.032" rx="8" width="91" y="45.469"/><rect fill="#c60084" height="14.452" rx="7.226" width="91" y="97.548"/><path d="m41.074 70.297a7.875 7.875 0 0 1 -3.374-6.477c0-4.344 3.492-7.865 7.8-7.865s7.8 3.521 7.8 7.865a7.875 7.875 0 0 1 -3.374 6.477l2.836 14.39a2.286 2.286 0 0 1 -2.242 2.727h-10.04a2.286 2.286 0 0 1 -2.242-2.728l2.836-14.39z" fill="#ffd567"/></g></svg>