<svg height="109" width="108" xmlns="http://www.w3.org/2000/svg"><g fill="none"><path d="m6.532 36.616-3.068 1.61c-3.61 1.967-4.513 6.617-2.166 9.836l1.985 2.861a6.394 6.394 0 0 1 0 7.869l-1.985 2.861c-2.347 3.22-1.264 7.87 2.346 9.836l3.068 1.61c2.527 1.43 3.971 4.113 3.43 6.974l-.542 3.398c-.722 3.935 2.346 7.69 6.317 7.869l3.43.179c2.887.179 5.414 2.146 6.136 4.828l.902 3.398c1.083 3.935 5.415 5.902 9.205 4.292l3.25-1.43c2.706-1.073 5.775-.537 7.76 1.61l2.346 2.503c2.708 3.04 7.58 3.04 10.108 0l2.346-2.683c1.985-2.146 5.054-2.861 7.76-1.788l3.25 1.252c3.79 1.61 8.122-.537 9.205-4.471l.902-3.398c.722-2.861 3.249-4.828 6.137-5.007l3.429-.18a6.67 6.67 0 0 0 6.317-7.868l-.361-3.04c-.542-2.861.902-5.723 3.43-7.153l3.067-1.61c3.61-1.967 4.513-6.617 2.166-9.836l-1.985-2.861a6.394 6.394 0 0 1 0-7.869l1.985-2.861c2.347-3.22 1.264-7.87-2.346-9.836l-3.068-1.61c-2.527-1.43-3.971-4.113-3.43-6.974l.542-3.398c.722-3.935-2.346-7.69-6.317-7.869l-3.43-.179c-2.887-.179-5.414-2.146-6.136-4.828l-.902-3.398c-1.083-3.935-5.415-5.902-9.205-4.292l-3.25 1.43c-2.706 1.073-5.775.537-7.76-1.61l-2.346-2.503c-2.708-3.04-7.58-3.04-10.108 0l-2.346 2.683c-1.985 2.146-5.054 2.861-7.76 1.788l-3.25-1.252c-3.79-1.61-8.122.537-9.205 4.471l-1.263 3.04c-.722 2.862-3.249 4.829-6.137 5.008l-3.429.178a6.67 6.67 0 0 0 -6.317 7.87l.722 3.397c.542 2.861-.902 5.723-3.43 7.153z" fill="#ff8a50"/><circle cx="55" cy="55" fill="#722291" r="30"/><circle cx="55" cy="55" fill="#ff298a" r="20"/><circle cx="66" cy="46" fill="#fff" r="6"/></g></svg>